<svg width="198" height="198" viewBox="0 0 198 198" fill="none" xmlns="http://www.w3.org/2000/svg">
<rect x="0.5" y="0.5" width="196.42" height="196.42" fill="white" stroke="white"/>
<path d="M144.589 58.4074C136.279 48.8757 125.109 42.3419 112.778 39.7998V44.0609C137.449 50.0619 153.502 71.8141 153.437 97.3623C153.373 122.91 135.447 145.435 110.905 150.747C96.1991 153.101 86.2534 150.673 86.1335 150.645C61.7768 145.128 44.0444 122.734 43.9706 97.3623C43.8445 85.1669 47.7852 73.2824 55.1602 63.6164C62.5353 53.9504 72.9169 47.0634 84.6389 44.0609V39.7998C72.3713 42.5079 61.2494 49.0135 52.8275 58.4074C43.253 69.0729 38.0325 82.9953 38.2135 97.3809C38.2966 125.636 58.0679 150.478 85.2662 156.451C89.5687 157.251 93.9367 157.641 98.3118 157.614C102.786 157.631 107.254 157.28 111.671 156.562C139.146 150.775 159.12 125.86 159.203 97.3716C159.389 82.9881 154.167 69.0671 144.589 58.4074Z" fill="#0E0E0E"/>
<path d="M68.4656 96.7203C68.4575 103.436 70.691 109.958 74.8065 115.237C78.9219 120.516 84.6797 124.245 91.1524 125.823C93.659 126.324 96.2084 126.577 98.7639 126.576C101.179 126.589 103.59 126.359 105.96 125.888C112.511 124.384 118.359 120.676 122.542 115.375C126.726 110.074 128.996 103.495 128.979 96.7203C128.979 85.286 123.277 75.7217 112.797 70.8465V75.1076C115.733 76.8411 118.211 79.2636 120.021 82.1692C122.361 85.5692 123.847 89.4925 124.348 93.6005C124.85 97.7085 124.353 101.878 122.9 105.749C121.447 109.62 119.081 113.076 116.008 115.82C112.935 118.563 109.246 120.511 105.259 121.496C100.888 122.287 96.4113 122.268 92.0473 121.44C87.2606 120.197 82.9376 117.572 79.6084 113.887C76.2793 110.203 74.0886 105.619 73.3051 100.697C72.5215 95.7753 73.1791 90.73 75.1972 86.1796C77.2154 81.6293 80.5063 77.7717 84.6665 75.0797V70.8465C79.7747 73.1181 75.6408 76.7712 72.7654 81.3633C69.89 85.9555 68.3965 91.2898 68.4656 96.7203Z" fill="#0E0E0E"/>
<path d="M112.778 58.7888C120.849 61.813 127.774 67.316 132.577 74.5215C136.194 79.9788 138.443 86.2394 139.132 92.7662C139.821 99.293 138.929 105.891 136.533 111.994C134.137 118.096 130.308 123.521 125.375 127.803C120.442 132.085 114.552 135.096 108.211 136.578C101.809 137.822 95.226 137.788 88.8367 136.475C80.4619 134.409 72.9652 129.688 67.4478 123.007C61.9305 116.326 58.6834 108.036 58.1838 99.3564C57.6841 90.6765 59.9581 82.0638 64.6717 74.7836C69.3852 67.5035 76.2899 61.9397 84.3713 58.9098L84.6296 58.826V54.9184L84.0207 55.0952C65.2365 61.1055 52.9752 77.5824 52.9752 97.1111C52.9452 107.442 56.3895 117.478 62.7455 125.581C69.0823 133.66 77.965 139.316 87.9233 141.611C91.3725 142.286 94.8818 142.598 98.3948 142.541C101.964 142.539 105.528 142.246 109.051 141.667C119.072 139.356 128.022 133.693 134.444 125.599C140.867 117.506 144.384 107.458 144.423 97.0925C144.423 77.3778 129.865 60.5565 114.033 55.272L112.769 54.8812L112.778 58.7888Z" fill="#0E0E0E"/>
</svg>
