<svg width="50" height="48" viewBox="0 0 50 48" fill="none" xmlns="http://www.w3.org/2000/svg">
<path d="M43.3413 7.58105C39.9555 3.69767 35.4046 1.0357 30.3808 0V1.73606C40.432 4.18095 46.9724 13.0432 46.9461 23.452C46.9198 33.8608 39.6163 43.0377 29.6178 45.202C23.6262 46.1611 19.5742 45.1717 19.5253 45.1604C9.60195 42.9126 2.37745 33.7888 2.34737 23.452C2.29599 18.4834 3.90152 13.6414 6.90625 9.7033C9.91098 5.76519 14.1406 2.95932 18.9164 1.73606V0C13.9184 1.10332 9.38708 3.75382 5.95587 7.58105C2.05504 11.9264 -0.0718899 17.5986 0.00185543 23.4596C0.035685 34.9714 8.09089 45.0921 19.172 47.5256C20.9249 47.8519 22.7045 48.0106 24.487 47.9995C26.3098 48.0066 28.1301 47.8634 29.9298 47.5711C41.1236 45.2134 49.2615 35.0624 49.2954 23.4558C49.3708 17.5957 47.2435 11.924 43.3413 7.58105Z" fill="white"/>
<path d="M12.3271 23.1905C12.3238 25.9263 13.2338 28.5837 14.9105 30.7346C16.5872 32.8854 18.933 34.4045 21.5701 35.0472C22.5913 35.2516 23.63 35.3544 24.6712 35.3543C25.6553 35.3595 26.6375 35.2656 27.6031 35.0738C30.2719 34.461 32.6545 32.9505 34.3589 30.7908C36.0634 28.631 36.9882 25.9507 36.9814 23.1905C36.9814 18.5319 34.6584 14.6352 30.3884 12.649V14.3851C31.5847 15.0913 32.5943 16.0782 33.3315 17.2621C34.2852 18.6473 34.8903 20.2457 35.0947 21.9194C35.299 23.5931 35.0964 25.2918 34.5045 26.8689C33.9125 28.446 32.9489 29.8542 31.6967 30.9719C30.4446 32.0897 28.9416 32.8834 27.3174 33.2846C25.5367 33.6069 23.7127 33.5992 21.9347 33.2619C19.9845 32.7553 18.2232 31.6858 16.8669 30.1846C15.5105 28.6835 14.618 26.8158 14.2988 24.8106C13.9796 22.8054 14.2475 20.7499 15.0697 18.896C15.8919 17.0421 17.2327 15.4704 18.9276 14.3737V12.649C16.9346 13.5745 15.2504 15.0628 14.0789 16.9337C12.9074 18.8047 12.2989 20.978 12.3271 23.1905Z" fill="white"/>
<path d="M30.3808 7.73647C33.6689 8.96857 36.4904 11.2106 38.4473 14.1463C39.9207 16.3696 40.8371 18.9204 41.1178 21.5795C41.3985 24.2386 41.0351 26.9267 40.0589 29.413C39.0826 31.8994 37.5227 34.1097 35.5129 35.8542C33.5031 37.5988 31.1036 38.8255 28.5202 39.4291C25.9117 39.9362 23.2298 39.9221 20.6266 39.3874C17.2146 38.5454 14.1603 36.6221 11.9124 33.9001C9.66457 31.1781 8.34167 27.8008 8.13808 24.2644C7.9345 20.7281 8.86096 17.2191 10.7814 14.2531C12.7018 11.287 15.5149 9.02021 18.8074 7.78575L18.9126 7.75163V6.1596L18.6645 6.23163C11.0115 8.68031 6.01601 15.3933 6.01601 23.3497C6.0038 27.5587 7.40705 31.6476 9.99663 34.9487C12.5784 38.2405 16.1973 40.5446 20.2545 41.4797C21.6598 41.7547 23.0895 41.8817 24.5208 41.8588C25.9751 41.8577 27.4269 41.7386 28.8623 41.5025C32.9449 40.561 36.5913 38.2537 39.208 34.9563C41.8247 31.6588 43.2577 27.5653 43.2737 23.3421C43.2737 15.3099 37.3422 8.45667 30.8921 6.30365L30.3771 6.14445L30.3808 7.73647Z" fill="white"/>
</svg>
