<svg width="276" height="48" viewBox="0 0 276 48" fill="none" xmlns="http://www.w3.org/2000/svg">
<path d="M43.3413 7.58105C39.9555 3.69767 35.4046 1.0357 30.3808 0V1.73606C40.432 4.18095 46.9724 13.0432 46.9461 23.452C46.9198 33.8608 39.6163 43.0377 29.6178 45.202C23.6262 46.1611 19.5742 45.1717 19.5253 45.1604C9.60195 42.9126 2.37745 33.7888 2.34737 23.452C2.29599 18.4834 3.90152 13.6414 6.90625 9.7033C9.91097 5.76519 14.1406 2.95932 18.9164 1.73606V0C13.9184 1.10332 9.38708 3.75382 5.95587 7.58105C2.05504 11.9264 -0.0718899 17.5986 0.00185543 23.4596C0.035685 34.9714 8.09089 45.0921 19.172 47.5256C20.9249 47.8519 22.7045 48.0106 24.487 47.9995C26.3098 48.0066 28.1301 47.8634 29.9298 47.5711C41.1236 45.2134 49.2615 35.0624 49.2954 23.4558C49.3708 17.5957 47.2435 11.924 43.3413 7.58105Z" fill="white"/>
<path d="M12.3271 23.1905C12.3238 25.9263 13.2338 28.5837 14.9105 30.7346C16.5872 32.8854 18.933 34.4045 21.5701 35.0472C22.5913 35.2516 23.63 35.3544 24.6712 35.3543C25.6553 35.3595 26.6375 35.2656 27.6031 35.0738C30.2719 34.461 32.6545 32.9505 34.3589 30.7908C36.0634 28.631 36.9882 25.9507 36.9814 23.1905C36.9814 18.5319 34.6584 14.6352 30.3884 12.649V14.3851C31.5847 15.0913 32.5943 16.0782 33.3315 17.2621C34.2852 18.6473 34.8903 20.2457 35.0947 21.9194C35.299 23.5931 35.0964 25.2918 34.5045 26.8689C33.9125 28.446 32.9489 29.8542 31.6967 30.9719C30.4446 32.0897 28.9416 32.8834 27.3174 33.2846C25.5367 33.6069 23.7127 33.5992 21.9347 33.2619C19.9845 32.7553 18.2232 31.6858 16.8669 30.1846C15.5105 28.6835 14.618 26.8158 14.2988 24.8106C13.9796 22.8054 14.2475 20.7499 15.0697 18.896C15.8919 17.0421 17.2327 15.4704 18.9276 14.3737V12.649C16.9346 13.5745 15.2504 15.0628 14.0789 16.9337C12.9074 18.8047 12.2989 20.978 12.3271 23.1905Z" fill="white"/>
<path d="M30.3808 7.73647C33.6689 8.96857 36.4904 11.2106 38.4473 14.1463C39.9207 16.3696 40.8371 18.9204 41.1178 21.5795C41.3985 24.2386 41.0351 26.9267 40.0589 29.413C39.0826 31.8994 37.5227 34.1097 35.5129 35.8542C33.5031 37.5988 31.1036 38.8255 28.5202 39.4291C25.9117 39.9362 23.2298 39.9221 20.6266 39.3874C17.2146 38.5454 14.1603 36.6221 11.9124 33.9001C9.66457 31.1781 8.34167 27.8008 8.13808 24.2644C7.9345 20.7281 8.86096 17.2191 10.7814 14.2531C12.7018 11.287 15.5149 9.02021 18.8074 7.78575L18.9126 7.75163V6.1596L18.6645 6.23163C11.0115 8.68031 6.01601 15.3933 6.01601 23.3497C6.0038 27.5587 7.40705 31.6476 9.99663 34.9487C12.5784 38.2405 16.1973 40.5446 20.2545 41.4797C21.6598 41.7547 23.0895 41.8817 24.5208 41.8588C25.9751 41.8577 27.4269 41.7386 28.8623 41.5025C32.9449 40.561 36.5913 38.2537 39.208 34.9563C41.8247 31.6588 43.2577 27.5653 43.2737 23.3421C43.2737 15.3099 37.3422 8.45667 30.892 6.30365L30.3771 6.14445L30.3808 7.73647Z" fill="white"/>
<path d="M81.4564 19.6671C81.4564 18.3942 81.2245 17.2561 80.7607 16.2525C80.3214 15.2244 79.6745 14.3677 78.8202 13.6824C77.9903 12.9725 76.9773 12.434 75.7812 12.0669C74.6095 11.6752 73.3036 11.4794 71.8635 11.4794H62.2705V37.1806H65.163V28.1117H71.3875C72.7544 28.1117 74.0481 27.9404 75.2686 27.5977C76.4891 27.2306 77.5509 26.6921 78.454 25.9822C79.3816 25.2724 80.1139 24.3912 80.6509 23.3387C81.1879 22.2861 81.4564 21.0623 81.4564 19.6671ZM78.5273 19.7772C78.5273 20.6339 78.3564 21.4172 78.0147 22.127C77.6973 22.8124 77.2214 23.4121 76.5867 23.9261C75.9765 24.4157 75.232 24.7951 74.3532 25.0643C73.4989 25.3336 72.5469 25.4682 71.4973 25.4682H65.163V14.1597H71.6438C73.7186 14.1597 75.3784 14.637 76.6233 15.5916C77.8926 16.5217 78.5273 17.9169 78.5273 19.7772Z" fill="white"/>
<path d="M89.0711 29.6171C89.0711 28.1974 89.2663 26.9491 89.6569 25.8721C90.0474 24.7706 90.5844 23.8527 91.2679 23.1184C91.9514 22.384 92.7447 21.8333 93.6478 21.4661C94.5754 21.099 95.5518 20.9154 96.577 20.9154H96.7967V17.868C95.8935 17.8435 95.0514 17.9537 94.2703 18.1984C93.4892 18.4432 92.7691 18.8104 92.11 19.2999C91.451 19.765 90.8652 20.328 90.3526 20.9888C89.84 21.6497 89.4128 22.3718 89.0711 23.1551V18.1984H86.2518V37.1806H89.0711V29.6171Z" fill="white"/>
<path d="M118.832 27.6711C118.832 26.3249 118.588 25.0521 118.099 23.8527C117.611 22.6533 116.928 21.613 116.049 20.7318C115.17 19.8262 114.121 19.1163 112.9 18.6023C111.704 18.0638 110.398 17.7946 108.982 17.7946C107.542 17.7946 106.212 18.0638 104.991 18.6023C103.795 19.1163 102.758 19.8262 101.879 20.7318C101 21.6375 100.317 22.7023 99.8288 23.9261C99.3406 25.1255 99.0965 26.3983 99.0965 27.7446C99.0965 29.0908 99.3406 30.3637 99.8288 31.563C100.317 32.7624 101 33.815 101.879 34.7206C102.758 35.6018 103.795 36.3116 104.991 36.8501C106.187 37.3642 107.493 37.6212 108.909 37.6212C110.325 37.6212 111.643 37.3642 112.864 36.8501C114.084 36.3116 115.134 35.5896 116.012 34.6839C116.891 33.7782 117.575 32.7257 118.063 31.5263C118.575 30.3025 118.832 29.0174 118.832 27.6711ZM115.939 27.7446C115.939 28.7726 115.768 29.7395 115.427 30.6451C115.085 31.5263 114.609 32.2974 113.999 32.9582C113.388 33.6191 112.656 34.1454 111.802 34.537C110.947 34.9042 110.008 35.0878 108.982 35.0878C107.982 35.0878 107.054 34.892 106.2 34.5003C105.345 34.1087 104.601 33.5824 103.966 32.9215C103.356 32.2606 102.868 31.4774 102.502 30.5717C102.16 29.666 101.989 28.6992 101.989 27.6711C101.989 26.6431 102.16 25.6885 102.502 24.8073C102.843 23.9016 103.307 23.1184 103.893 22.4575C104.503 21.7721 105.236 21.2459 106.09 20.8787C106.944 20.4871 107.884 20.2912 108.909 20.2912C109.91 20.2912 110.838 20.4871 111.692 20.8787C112.546 21.2703 113.291 21.8088 113.925 22.4942C114.56 23.1551 115.048 23.9384 115.39 24.844C115.756 25.7497 115.939 26.7165 115.939 27.7446Z" fill="white"/>
<path d="M138.951 21.5763C138.438 20.4993 137.681 19.6059 136.681 18.896C135.68 18.1617 134.41 17.7946 132.873 17.7946C132.067 17.7946 131.359 17.8925 130.749 18.0883C130.139 18.2841 129.59 18.5533 129.101 18.896C128.613 19.2142 128.174 19.5936 127.783 20.0342C127.417 20.4748 127.075 20.9276 126.758 21.3927V18.1984H123.939V37.1806H126.758V26.3494C126.758 25.4682 126.892 24.6727 127.161 23.9628C127.429 23.2285 127.795 22.5921 128.259 22.0536C128.747 21.5151 129.309 21.099 129.944 20.8053C130.578 20.5115 131.274 20.3647 132.031 20.3647C133.544 20.3647 134.728 20.8665 135.582 21.87C136.461 22.8491 136.9 24.2321 136.9 26.0189V37.1806H139.683V26.2392C139.683 25.3091 139.817 24.4769 140.086 23.7425C140.379 23.0082 140.757 22.3963 141.221 21.9067C141.709 21.3927 142.27 21.0133 142.905 20.7685C143.54 20.4993 144.211 20.3647 144.919 20.3647C146.457 20.3647 147.653 20.8665 148.507 21.87C149.386 22.8491 149.825 24.2566 149.825 26.0924V37.1806H152.644V25.4315C152.644 23.0572 152.022 21.1969 150.777 19.8506C149.532 18.4799 147.811 17.7946 145.614 17.7946C144.785 17.7946 144.028 17.8925 143.344 18.0883C142.685 18.2841 142.087 18.5533 141.55 18.896C141.013 19.2387 140.525 19.6426 140.086 20.1077C139.671 20.5727 139.292 21.0623 138.951 21.5763Z" fill="white"/>
<path d="M160.45 28.7359H175.461C175.486 28.5646 175.498 28.4055 175.498 28.2586C175.498 28.1117 175.498 27.9771 175.498 27.8547C175.498 26.4595 175.303 25.15 174.912 23.9261C174.522 22.7023 173.948 21.6375 173.191 20.7318C172.435 19.8262 171.507 19.1163 170.409 18.6023C169.31 18.0638 168.065 17.7946 166.674 17.7946C165.356 17.7946 164.135 18.0516 163.013 18.5656C161.914 19.0796 160.962 19.7895 160.157 20.6951C159.351 21.5763 158.716 22.6288 158.253 23.8527C157.813 25.0521 157.594 26.3371 157.594 27.7079C157.594 29.1765 157.838 30.5228 158.326 31.7466C158.839 32.9705 159.522 34.023 160.376 34.9042C161.231 35.7609 162.231 36.434 163.379 36.9236C164.526 37.3886 165.746 37.6212 167.04 37.6212C168.846 37.6212 170.36 37.303 171.58 36.6666C172.801 36.0057 173.887 35.1367 174.839 34.0597L173.082 32.4809C172.3 33.2887 171.434 33.9373 170.482 34.4269C169.554 34.9164 168.431 35.1612 167.113 35.1612C166.283 35.1612 165.49 35.0266 164.733 34.7573C163.977 34.4636 163.293 34.0475 162.683 33.509C162.073 32.946 161.572 32.2729 161.182 31.4896C160.791 30.6819 160.547 29.764 160.45 28.7359ZM160.45 26.6431C160.547 25.713 160.767 24.8563 161.109 24.073C161.45 23.2897 161.89 22.6166 162.427 22.0536C162.964 21.4661 163.586 21.0133 164.294 20.6951C165.002 20.3524 165.771 20.1811 166.601 20.1811C167.553 20.1811 168.383 20.3647 169.091 20.7318C169.823 21.0745 170.433 21.5396 170.921 22.127C171.434 22.7145 171.824 23.3999 172.093 24.1831C172.386 24.9664 172.569 25.7864 172.642 26.6431H160.45Z" fill="white"/>
<path d="M184.241 20.6951H190.246V18.1984H184.241V12.4707H181.422V18.1984H178.786V20.6951H181.422V32.1505C181.422 33.1051 181.556 33.9251 181.825 34.6105C182.093 35.2958 182.46 35.8588 182.923 36.2994C183.412 36.7155 183.985 37.0215 184.644 37.2173C185.303 37.4131 186.011 37.511 186.768 37.511C187.451 37.511 188.062 37.4376 188.599 37.2907C189.16 37.1683 189.685 36.9725 190.173 36.7033V34.28C189.685 34.5248 189.221 34.6961 188.782 34.794C188.367 34.892 187.915 34.9409 187.427 34.9409C186.475 34.9409 185.706 34.7084 185.12 34.2433C184.534 33.7782 184.241 32.9582 184.241 31.7833V20.6951Z" fill="white"/>
<path d="M198.056 26.3127C198.056 25.4315 198.19 24.6237 198.459 23.8894C198.752 23.1551 199.154 22.5309 199.667 22.0169C200.18 21.4784 200.778 21.0745 201.461 20.8053C202.169 20.5115 202.926 20.3647 203.731 20.3647C205.415 20.3647 206.709 20.8787 207.612 21.9067C208.515 22.9348 208.967 24.33 208.967 26.0924V37.1806H211.786V25.3948C211.786 24.2688 211.615 23.2408 211.274 22.3106C210.956 21.3805 210.48 20.585 209.846 19.9241C209.235 19.2387 208.479 18.7125 207.576 18.3453C206.697 17.9781 205.684 17.7946 204.537 17.7946C202.901 17.7946 201.571 18.1617 200.546 18.896C199.52 19.6059 198.691 20.4748 198.056 21.5029V10.3779H195.237V37.1806H198.056V26.3127Z" fill="white"/>
<path d="M219.483 28.7359H234.495C234.519 28.5646 234.532 28.4055 234.532 28.2586C234.532 28.1117 234.532 27.9771 234.532 27.8547C234.532 26.4595 234.336 25.15 233.946 23.9261C233.555 22.7023 232.982 21.6375 232.225 20.7318C231.468 19.8262 230.541 19.1163 229.442 18.6023C228.344 18.0638 227.099 17.7946 225.707 17.7946C224.389 17.7946 223.169 18.0516 222.046 18.5656C220.948 19.0796 219.996 19.7895 219.19 20.6951C218.385 21.5763 217.75 22.6288 217.286 23.8527C216.847 25.0521 216.627 26.3371 216.627 27.7079C216.627 29.1765 216.871 30.5228 217.359 31.7466C217.872 32.9705 218.555 34.023 219.41 34.9042C220.264 35.7609 221.265 36.434 222.412 36.9236C223.559 37.3886 224.78 37.6212 226.074 37.6212C227.88 37.6212 229.393 37.303 230.614 36.6666C231.834 36.0057 232.92 35.1367 233.872 34.0597L232.115 32.4809C231.334 33.2887 230.467 33.9373 229.515 34.4269C228.588 34.9164 227.465 35.1612 226.147 35.1612C225.317 35.1612 224.524 35.0266 223.767 34.7573C223.01 34.4636 222.327 34.0475 221.716 33.509C221.106 32.946 220.606 32.2729 220.215 31.4896C219.825 30.6819 219.581 29.764 219.483 28.7359ZM219.483 26.6431C219.581 25.713 219.8 24.8563 220.142 24.073C220.484 23.2897 220.923 22.6166 221.46 22.0536C221.997 21.4661 222.62 21.0133 223.328 20.6951C224.035 20.3524 224.804 20.1811 225.634 20.1811C226.586 20.1811 227.416 20.3647 228.124 20.7318C228.856 21.0745 229.467 21.5396 229.955 22.127C230.467 22.7145 230.858 23.3999 231.126 24.1831C231.419 24.9664 231.602 25.7864 231.676 26.6431H219.483Z" fill="white"/>
<path d="M252.904 29.0664C252.904 29.9475 252.758 30.7553 252.465 31.4896C252.172 32.2239 251.769 32.8603 251.257 33.3988C250.769 33.9129 250.171 34.3167 249.463 34.6105C248.779 34.8797 248.035 35.0143 247.229 35.0143C245.545 35.0143 244.251 34.5003 243.348 33.4723C242.445 32.4442 241.993 31.049 241.993 29.2866V18.1984H239.174V29.9843C239.174 31.1102 239.333 32.1383 239.65 33.0684C239.992 33.9985 240.468 34.8063 241.078 35.4916C241.713 36.1525 242.469 36.6666 243.348 37.0337C244.251 37.4009 245.276 37.5845 246.424 37.5845C248.059 37.5845 249.389 37.2295 250.415 36.5197C251.44 35.7854 252.27 34.9042 252.904 33.8761V37.1806H255.687V18.1984H252.904V29.0664Z" fill="white"/>
<path d="M275.027 31.8568V31.7833C275.027 30.9266 274.844 30.2045 274.478 29.6171C274.136 29.0296 273.673 28.5279 273.087 28.1117C272.501 27.6956 271.842 27.3529 271.11 27.0837C270.402 26.8144 269.682 26.5697 268.949 26.3494C268.315 26.1536 267.704 25.9577 267.119 25.7619C266.533 25.5661 266.008 25.3458 265.544 25.101C265.105 24.8563 264.751 24.5748 264.482 24.2566C264.214 23.9139 264.08 23.5222 264.08 23.0817V23.0082C264.08 22.2249 264.409 21.5763 265.068 21.0623C265.727 20.5238 266.618 20.2545 267.741 20.2545C268.669 20.2545 269.608 20.4259 270.56 20.7685C271.537 21.0868 272.464 21.5273 273.343 22.0903L274.625 19.9608C273.648 19.3244 272.562 18.8226 271.366 18.4554C270.17 18.0638 268.986 17.868 267.814 17.868C266.887 17.868 266.02 18.0026 265.215 18.2719C264.434 18.5166 263.75 18.8838 263.164 19.3733C262.603 19.8384 262.163 20.4136 261.846 21.099C261.529 21.7599 261.37 22.4942 261.37 23.3019V23.3754C261.37 24.2566 261.553 24.9909 261.919 25.5783C262.31 26.1658 262.798 26.6553 263.384 27.047C263.994 27.4386 264.665 27.7691 265.398 28.0383C266.154 28.2831 266.899 28.5156 267.631 28.7359C268.241 28.9073 268.827 29.0908 269.389 29.2866C269.974 29.4825 270.487 29.715 270.926 29.9843C271.366 30.229 271.708 30.5228 271.952 30.8654C272.22 31.2081 272.354 31.612 272.354 32.0771V32.1505C272.354 33.0806 271.988 33.815 271.256 34.3535C270.524 34.892 269.584 35.1612 268.437 35.1612C267.314 35.1612 266.191 34.9531 265.068 34.537C263.97 34.1209 262.908 33.5212 261.883 32.7379L260.455 34.7573C261.529 35.614 262.761 36.2994 264.153 36.8134C265.544 37.303 266.923 37.5477 268.29 37.5477C269.242 37.5477 270.121 37.4254 270.926 37.1806C271.756 36.9113 272.464 36.5319 273.05 36.0424C273.66 35.5528 274.136 34.9654 274.478 34.28C274.844 33.5702 275.027 32.7624 275.027 31.8568Z" fill="white"/>
</svg>
